<svg version="1.1" id="Layer_1" xmlns="http://www.w3.org/2000/svg" xmlns:xlink="http://www.w3.org/1999/xlink" x="0px" y="0px"
	 width="100%" viewBox="0 0 1024 385" enable-background="new 0 0 1024 385" xml:space="preserve">
<path fill="#000000" opacity="1.000000" stroke="none" 
	d="
M631.000000,386.000000 
	C421.117218,386.000000 211.234421,386.000000 1.000000,386.000000 
	C1.000000,336.978546 1.000000,287.956268 1.402137,238.479767 
	C2.974645,241.594513 3.697725,245.394150 5.397443,248.690125 
	C10.974174,259.504120 18.537870,268.702087 28.420767,275.989044 
	C40.449692,284.858368 54.257576,288.724792 68.767273,289.797180 
	C75.688889,290.308746 82.865440,289.178711 89.759521,287.895203 
	C106.358688,284.804901 119.643822,276.078918 130.406662,262.523804 
	C122.261551,255.533752 114.369499,248.611450 106.220848,242.005692 
	C105.431564,241.365845 102.667778,242.210098 101.477898,243.175568 
	C95.278946,248.205399 88.949020,252.215942 80.835617,254.315567 
	C58.258015,260.158386 32.132149,236.829010 39.731777,212.148010 
	C43.879978,198.676071 51.900078,189.775513 65.130447,186.617737 
	C78.216187,183.494492 90.357689,186.648331 100.201691,196.545166 
	C102.261681,198.616241 104.245323,200.074203 107.313736,197.392761 
	C114.319130,191.270844 121.708397,185.588516 128.725784,179.479553 
	C129.427765,178.868469 129.254028,175.980759 128.450058,175.134460 
	C125.279327,171.796860 121.810280,168.711365 118.241882,165.788773 
	C108.068283,157.456345 96.144249,152.468307 83.300583,151.294022 
	C74.096581,150.452499 64.442543,151.333694 55.340702,153.179306 
	C28.993086,158.521927 11.325749,174.190720 2.947884,199.986481 
	C2.688749,200.784363 1.666491,201.334412 1.000003,202.000000 
	C1.000000,135.046494 1.000000,68.092995 1.000000,1.000000 
	C142.355316,1.000000 283.710693,1.000000 425.834930,1.368497 
	C425.931488,2.152214 425.305939,2.800551 424.579529,2.946442 
	C417.634583,4.341208 410.654907,5.565642 403.719086,7.002594 
	C388.405853,10.175180 373.802917,15.519454 360.194672,23.104364 
	C348.720245,29.499914 337.206604,36.121689 326.823059,44.092815 
	C316.839813,51.756645 308.035706,61.035488 299.159149,70.043869 
	C285.060822,84.351570 274.931213,101.436638 265.454224,119.627846 
	C274.370331,124.142967 282.913086,128.584671 291.613068,132.693390 
	C292.470001,133.098083 294.832245,131.826645 295.580719,130.716339 
	C303.201050,119.412056 310.123688,107.602623 318.239258,96.675529 
	C329.204590,81.911331 343.389008,70.215630 358.695831,60.323055 
	C370.044220,52.988796 382.341522,47.230961 395.279633,42.526230 
	C409.978577,37.181171 424.905365,33.064388 440.239014,32.323837 
	C458.537933,31.440081 476.899170,31.239532 495.211639,35.663746 
	C511.714386,39.650742 527.359009,45.313179 542.342346,52.913044 
	C558.505127,61.111122 572.703552,72.277084 585.353149,85.128616 
	C592.918945,92.815163 599.498230,101.553215 605.909058,110.268745 
	C610.462585,116.459274 614.396790,123.202515 617.802612,130.096695 
	C619.371216,133.271988 620.638306,133.556183 623.275208,132.251053 
	C631.157654,128.349655 639.041199,124.450539 647.949158,120.043495 
	C646.052551,115.898567 644.601929,111.655876 642.317627,107.923370 
	C632.914551,92.559052 622.778076,77.723709 610.208740,64.678185 
	C596.454407,50.402824 580.877197,38.310371 563.950012,28.263292 
	C553.905151,22.301258 542.471130,18.698139 531.721558,13.900342 
	C518.393066,7.951492 504.428192,4.548166 489.968445,2.922344 
	C489.249359,2.841490 488.653351,1.665859 488.000000,0.999995 
	C666.897461,1.000000 845.794922,1.000000 1025.000000,1.000000 
	C1025.000000,74.355057 1025.000000,147.710556 1024.672119,221.827698 
	C1023.899109,221.951111 1023.254395,221.373825 1023.038208,220.665726 
	C1018.188171,204.781723 1006.964233,195.194321 991.803406,190.085663 
	C983.182739,187.180847 974.180237,187.059128 964.942505,187.786942 
	C949.855469,188.975647 937.842407,195.283569 927.982300,206.309875 
	C919.886414,215.363342 917.378418,226.711609 917.262939,238.159729 
	C917.154175,248.935226 919.530334,259.537598 926.210266,268.771088 
	C932.770813,277.839447 941.283020,283.962036 951.888550,286.922241 
	C964.074951,290.323669 976.310242,291.362976 988.972961,288.187103 
	C999.156311,285.633118 1007.634338,280.632690 1015.337891,273.967133 
	C1016.323669,273.114136 1016.826294,269.908234 1016.119263,269.175446 
	C1010.199890,263.040710 1003.988647,257.182556 997.723877,251.394104 
	C997.103577,250.820892 995.016785,250.770294 994.492126,251.319427 
	C987.693115,258.435638 979.019043,258.364960 970.205505,258.013336 
	C963.034485,257.727203 957.951965,254.651764 956.112366,249.000000 
	C979.161072,249.000000 1002.080505,249.000000 1025.000000,249.000000 
	C1025.000000,294.628143 1025.000000,340.256317 1025.000000,386.000000 
	C899.311340,386.000000 773.622681,386.000000 647.467041,385.610291 
	C653.139648,371.175568 659.285522,357.133270 665.415344,343.084015 
	C667.504883,338.294952 669.554199,333.488403 671.919189,328.000000 
	C668.832947,328.000000 666.856201,328.000092 664.879517,328.000000 
	C655.303650,327.999573 655.431946,328.048370 651.962463,337.164978 
	C650.015442,342.281128 647.561157,347.204254 645.006714,352.954254 
	C643.090027,349.161591 641.709717,346.619873 640.506165,343.997101 
	C639.235596,341.228210 637.571228,338.478638 637.067810,335.550598 
	C635.773865,328.024200 630.962769,327.299774 624.684875,327.909882 
	C620.169067,328.348694 615.572388,328.099487 611.010986,328.090118 
	C608.652161,328.085266 606.291443,329.015320 603.931580,329.522949 
	C603.970825,330.071289 604.010071,330.619629 604.049316,331.167938 
	C603.010803,330.776154 601.952209,330.430267 600.936951,329.985413 
	C591.770630,325.968628 580.792480,328.059540 573.850464,334.541260 
	C566.778015,341.144653 566.246094,349.532196 567.099854,358.067413 
	C568.695312,374.015625 585.813965,381.391846 598.946716,376.651947 
	C601.145020,375.858490 603.742004,376.072205 606.159790,376.007385 
	C609.738281,375.911407 613.321228,375.982574 617.489014,375.982574 
	C617.489014,360.553833 617.489014,345.791260 617.489014,331.028687 
	C619.681885,333.245880 620.886414,335.619598 621.970337,338.047272 
	C625.280151,345.460327 628.066284,353.156433 631.962585,360.244141 
	C635.667542,366.983765 638.766296,373.155487 633.325989,380.365234 
	C632.141602,381.934814 631.754333,384.105927 631.000000,386.000000 
M559.308838,361.206238 
	C562.825928,361.401489 564.167419,359.995789 564.088196,356.245911 
	C563.845581,344.761902 564.000000,333.269501 564.000000,321.780365 
	C564.000000,319.201263 564.000000,316.622131 564.000000,314.363495 
	C558.526978,314.363495 553.783691,314.363495 548.698364,314.363495 
	C548.698364,325.430084 548.698364,336.134033 548.698364,347.432892 
	C547.656921,346.757355 547.018982,346.537872 546.674866,346.091705 
	C539.071594,336.233978 531.543945,326.317444 523.866394,316.518219 
	C522.961060,315.362671 521.316589,314.229980 519.929077,314.114258 
	C516.030029,313.789093 512.086243,314.000885 508.289429,314.000885 
	C508.289429,335.006439 508.289429,355.399048 508.289429,375.710876 
	C513.320068,375.710876 518.056519,375.710876 523.360962,375.710876 
	C523.360962,364.298950 523.360962,353.168762 523.360962,340.719330 
	C527.132690,345.908600 529.907471,350.073029 533.040100,353.948181 
	C536.927185,358.756592 541.110535,363.325500 544.821960,368.653046 
	C541.133362,370.649750 537.444824,372.646454 533.756226,374.643127 
	C533.929749,375.004059 534.103333,375.364960 534.276855,375.725891 
	C544.077209,375.725891 553.877625,375.725891 563.792725,375.725891 
	C563.792725,371.042297 563.792725,366.634644 563.792725,361.998383 
	C562.112610,361.998383 560.639099,361.998383 559.308838,361.206238 
M519.979553,174.921082 
	C519.462402,173.914597 518.949951,172.905685 518.427429,171.901962 
	C511.792908,159.157166 501.166107,153.030945 486.923370,153.008179 
	C466.763794,152.975967 446.604187,152.995193 426.444580,153.010208 
	C425.013702,153.011276 423.582947,153.158035 422.295746,153.229126 
	C422.295746,198.344299 422.295746,243.072052 422.295746,287.001190 
	C447.812744,287.001190 473.041565,287.460938 498.242279,286.819275 
	C512.141418,286.465393 521.531738,277.562439 527.825623,265.951782 
	C531.781799,258.653625 531.821167,250.371368 531.215515,241.976303 
	C530.726807,235.201385 528.282593,229.753113 524.218750,224.781281 
	C520.063354,219.697586 515.008667,215.800461 508.119476,214.562057 
	C523.361938,203.249664 523.075195,189.317474 519.979553,174.921082 
M830.509583,328.003967 
	C835.332458,328.669281 840.137329,329.678802 844.981750,329.931366 
	C856.619568,330.538239 868.182129,329.684814 878.975647,324.903656 
	C887.039795,321.331573 894.002136,316.017548 898.850891,308.488586 
	C904.794617,299.259491 906.923523,288.859558 906.964478,278.055023 
	C907.070435,250.074677 907.000000,222.093674 907.000000,194.112946 
	C907.000000,192.505157 907.000000,190.897354 907.000000,189.001678 
	C895.380188,189.001678 884.253601,188.997696 873.126953,189.012100 
	C872.493835,189.012909 871.860840,189.164185 871.180420,189.251495 
	C871.019714,191.608459 870.871521,193.781616 870.691895,196.416214 
	C868.278503,194.754868 866.547729,193.277496 864.580017,192.257126 
	C854.700806,187.134155 843.859314,187.018539 833.702148,189.402695 
	C812.461609,194.388382 800.317322,209.434570 797.300903,228.749298 
	C794.833069,244.551422 797.149902,260.151917 808.962646,272.710297 
	C814.754333,278.867493 821.291687,283.865356 829.621277,285.983856 
	C842.188232,289.180084 854.625732,289.455017 866.785706,284.040222 
	C868.316895,283.358368 870.146118,283.346008 873.075684,282.787201 
	C871.718933,284.537598 871.284851,285.002625 870.957886,285.533600 
	C863.924561,296.954651 853.895569,301.303223 840.939636,297.947906 
	C833.716797,296.077332 826.694153,293.433655 819.701355,291.177124 
	C814.824219,298.273346 810.016663,305.363617 805.095459,312.374084 
	C803.492310,314.657867 803.388794,316.188202 805.908264,318.055084 
	C813.032959,323.334381 821.205139,325.922882 830.509583,328.003967 
M687.387695,203.090317 
	C684.965942,206.572968 682.325195,209.925583 680.165100,213.563583 
	C674.565613,222.994125 674.997009,233.481171 674.914795,243.957596 
	C674.831238,254.603653 678.925293,263.764740 685.291931,271.534302 
	C698.611084,287.788391 716.294189,291.924225 736.256042,287.197296 
	C740.522278,286.187042 744.481628,283.881073 748.821411,282.072388 
	C748.941101,284.072479 749.053467,285.948853 749.159058,287.713379 
	C761.313843,287.713379 773.049683,287.713379 784.754944,287.713379 
	C784.754944,242.718369 784.754944,198.010391 784.754944,153.237335 
	C772.777771,153.237335 761.047180,153.237335 749.000000,153.237335 
	C749.000000,160.595200 749.000000,167.720428 749.000000,174.845673 
	C749.000000,181.868530 749.000000,188.891403 749.000000,196.626389 
	C746.290710,194.761703 744.589539,193.192551 742.588501,192.283432 
	C734.471436,188.595688 726.042114,188.026703 717.126404,188.825546 
	C705.511169,189.866257 696.216980,194.898804 687.387695,203.090317 
M195.568100,187.989197 
	C189.302765,187.659607 182.964996,186.566467 176.786499,187.152390 
	C161.915756,188.562683 149.338852,194.982056 139.743942,206.666275 
	C128.086472,220.862167 125.225060,236.851532 130.713028,254.244949 
	C138.254761,278.147491 159.055634,289.666504 180.940918,290.849945 
	C196.808731,291.707977 210.984695,286.883179 223.318451,276.077515 
	C239.369385,262.015198 243.706055,235.169662 234.556030,217.059631 
	C226.533066,201.180313 213.789017,191.591431 195.568100,187.989197 
M399.075592,202.448303 
	C392.283264,192.751785 383.235352,188.267029 371.142395,187.675903 
	C359.773102,187.120148 349.685028,188.248199 340.990173,198.142761 
	C340.990173,194.261444 340.990173,191.849228 340.990173,189.244659 
	C328.531250,189.244659 316.469482,189.244659 304.254120,189.244659 
	C304.254120,222.196884 304.254120,254.904022 304.254120,288.000000 
	C310.458862,288.000000 316.416565,288.000000 322.374268,288.000000 
	C328.475494,288.000000 334.576691,288.000000 341.000000,288.000000 
	C341.000000,285.803802 341.000000,284.169159 341.000000,282.534515 
	C341.000061,267.214355 340.942566,251.893906 341.022034,236.574158 
	C341.068512,227.615112 346.859100,220.987564 354.203949,220.789261 
	C363.521271,220.537689 367.829102,226.543457 367.941437,234.913177 
	C368.147064,250.230576 368.000000,265.552704 368.000000,280.872864 
	C368.000000,283.143219 368.000000,285.413544 368.000000,287.686310 
	C380.627197,287.686310 392.681091,287.686310 405.000000,287.686310 
	C405.000000,267.580170 404.909393,247.785919 405.041443,227.993164 
	C405.100037,219.211761 403.701324,210.850235 399.075592,202.448303 
M581.000000,274.492126 
	C581.000000,263.495453 580.970093,252.498627 581.033386,241.502335 
	C581.042480,239.916946 581.371826,238.301010 581.770996,236.755493 
	C584.437622,226.428192 593.729919,221.481812 603.734558,221.074738 
	C607.712708,220.912857 611.724915,221.586639 615.749146,221.881973 
	C615.749146,210.394394 615.749146,199.304672 615.749146,188.339203 
	C603.145935,186.248672 591.376465,186.911209 580.918518,197.174210 
	C580.918518,193.580399 580.918518,191.388763 580.918518,189.295242 
	C568.341919,189.295242 556.269470,189.295242 544.289185,189.295242 
	C544.289185,222.323196 544.289185,255.055130 544.289185,287.710297 
	C556.650879,287.710297 568.721313,287.710297 581.000000,287.710297 
	C581.000000,283.444580 581.000000,279.466827 581.000000,274.492126 
M251.000000,267.499847 
	C251.000000,274.253906 251.000000,281.007996 251.000000,287.661560 
	C263.691376,287.661560 275.739288,287.661560 287.679871,287.661560 
	C287.679871,254.632996 287.679871,221.943802 287.679871,189.338165 
	C275.309235,189.338165 263.261353,189.338165 251.000000,189.338165 
	C251.000000,215.283783 251.000000,240.891830 251.000000,267.499847 
M626.000000,194.599731 
	C626.000000,225.684097 626.000000,256.768463 626.000000,287.675903 
	C638.717163,287.675903 650.790344,287.675903 662.674927,287.675903 
	C662.674927,254.614014 662.674927,221.877014 662.674927,189.151337 
	C650.396362,189.151337 638.443481,189.151337 626.000000,189.151337 
	C626.000000,190.737717 626.000000,192.180176 626.000000,194.599731 
M682.466187,376.052277 
	C688.365601,379.449982 694.302979,378.334473 700.310547,376.329865 
	C702.052063,375.748749 703.960083,375.353607 705.781311,375.390503 
	C709.452148,375.464783 713.115784,375.894135 716.734497,376.173340 
	C716.734497,359.665009 716.734497,343.951172 716.734497,327.846832 
	C713.044189,328.039825 707.877258,326.916718 706.578918,328.665588 
	C703.805664,332.401154 702.143188,329.709473 699.673584,329.430695 
	C694.473083,328.843597 688.865662,327.931641 683.988953,329.245361 
	C674.619019,331.769501 669.042603,337.888031 667.577820,348.447357 
	C665.988159,359.906799 670.812622,372.714539 682.466187,376.052277 
M730.068665,361.395599 
	C727.140137,365.957245 724.211670,370.518921 720.810364,375.817078 
	C727.647827,375.817078 733.104065,375.817078 738.125671,375.817078 
	C739.612122,373.463776 741.105408,371.403168 742.275574,369.172943 
	C743.869934,366.134094 744.882202,366.303162 746.744385,369.138702 
	C748.430237,371.705627 750.622192,375.126862 753.149414,375.697418 
	C757.823364,376.752625 762.905640,375.999268 768.917542,375.999268 
	C764.541687,369.408417 760.692078,363.739807 756.994385,357.973816 
	C755.615906,355.824280 753.010132,352.628204 753.687744,351.319153 
	C756.277954,346.314911 760.014832,341.910828 763.246887,337.229706 
	C765.110229,334.531067 766.826599,331.730896 769.088013,328.236359 
	C762.278687,328.236359 756.745300,328.236359 751.874451,328.236359 
	C749.190552,332.241547 746.814148,335.787903 744.297485,339.543549 
	C735.954224,327.819641 731.366943,325.919067 718.505920,328.847412 
	C721.726868,333.158630 724.899475,337.191559 727.836792,341.389130 
	C731.791321,347.040039 738.468262,352.327698 730.994690,359.968872 
	C730.785461,360.182831 730.757935,360.574615 730.068665,361.395599 
M289.055176,156.472717 
	C288.962708,146.051270 276.040802,139.465622 268.592316,140.219482 
	C259.642395,141.125305 251.740311,145.733948 249.125183,157.545105 
	C246.507950,169.365860 258.284424,183.531647 270.220642,181.896194 
	C283.721649,180.046341 291.249573,172.361343 289.055176,156.472717 
M638.120117,141.382065 
	C629.366577,144.335709 624.370850,150.679657 623.952393,158.561935 
	C623.282837,171.175064 628.688599,177.177170 635.472961,179.726395 
	C640.672974,181.680313 645.703552,182.050995 651.471497,180.238495 
	C663.122253,176.577393 669.126038,158.266937 661.093689,149.011124 
	C655.137207,142.147308 648.057739,138.744720 638.120117,141.382065 
M420.000000,338.501770 
	C420.000000,348.585480 420.000000,358.669189 420.000000,369.000000 
	C425.498077,369.000000 430.474792,368.772980 435.421753,369.059540 
	C441.142853,369.390900 446.570496,367.810852 448.713562,362.761292 
	C451.088043,357.166504 451.839813,350.583527 446.983429,345.271820 
	C445.165161,343.283081 444.974762,341.770874 446.127136,339.229828 
	C449.434967,331.935913 445.277802,323.031403 437.926666,322.165039 
	C432.089386,321.477051 426.106323,322.026367 420.000000,322.026367 
	C420.000000,327.561615 420.000000,332.532471 420.000000,338.501770 
M460.999237,355.427643 
	C462.952148,359.764313 466.442413,364.107239 466.424683,368.435852 
	C466.407043,372.745178 462.867645,377.040070 460.688812,381.737213 
	C463.734955,381.737213 466.294098,381.737213 468.430511,381.737213 
	C475.042755,366.118530 481.546387,350.756378 488.016754,335.472839 
	C482.420624,333.715881 479.407745,335.387543 477.882111,341.027740 
	C476.524872,346.045654 474.032349,350.760773 471.964233,355.576630 
	C471.716095,356.154419 470.983185,356.895081 470.482880,356.889130 
	C469.983154,356.883209 469.273560,356.124573 469.033783,355.540771 
	C466.973419,350.523804 464.788452,345.542877 463.051575,340.412079 
	C460.870697,333.969727 461.253571,334.462799 453.542603,335.809998 
	C456.040253,342.144897 458.500092,348.383728 460.999237,355.427643 
z"/>
<path fill="#FFFFFF" opacity="1.000000" stroke="none" 
	d="
M487.531342,0.999995 
	C488.653351,1.665859 489.249359,2.841490 489.968445,2.922344 
	C504.428192,4.548166 518.393066,7.951492 531.721558,13.900342 
	C542.471130,18.698139 553.905151,22.301258 563.950012,28.263292 
	C580.877197,38.310371 596.454407,50.402824 610.208740,64.678185 
	C622.778076,77.723709 632.914551,92.559052 642.317627,107.923370 
	C644.601929,111.655876 646.052551,115.898567 647.949158,120.043495 
	C639.041199,124.450539 631.157654,128.349655 623.275208,132.251053 
	C620.638306,133.556183 619.371216,133.271988 617.802612,130.096695 
	C614.396790,123.202515 610.462585,116.459274 605.909058,110.268745 
	C599.498230,101.553215 592.918945,92.815163 585.353149,85.128616 
	C572.703552,72.277084 558.505127,61.111122 542.342346,52.913044 
	C527.359009,45.313179 511.714386,39.650742 495.211639,35.663746 
	C476.899170,31.239532 458.537933,31.440081 440.239014,32.323837 
	C424.905365,33.064388 409.978577,37.181171 395.279633,42.526230 
	C382.341522,47.230961 370.044220,52.988796 358.695831,60.323055 
	C343.389008,70.215630 329.204590,81.911331 318.239258,96.675529 
	C310.123688,107.602623 303.201050,119.412056 295.580719,130.716339 
	C294.832245,131.826645 292.470001,133.098083 291.613068,132.693390 
	C282.913086,128.584671 274.370331,124.142967 265.454224,119.627846 
	C274.931213,101.436638 285.060822,84.351570 299.159149,70.043869 
	C308.035706,61.035488 316.839813,51.756645 326.823059,44.092815 
	C337.206604,36.121689 348.720245,29.499914 360.194672,23.104364 
	C373.802917,15.519454 388.405853,10.175180 403.719086,7.002594 
	C410.654907,5.565642 417.634583,4.341208 424.579529,2.946442 
	C425.305939,2.800551 425.931488,2.152214 426.301910,1.368497 
	C446.354218,1.000000 466.708466,1.000000 487.531342,0.999995 
z"/>
<path fill="#EFAF22" opacity="1.000000" stroke="none" 
	d="
M1.000003,202.468658 
	C1.666491,201.334412 2.688749,200.784363 2.947884,199.986481 
	C11.325749,174.190720 28.993086,158.521927 55.340702,153.179306 
	C64.442543,151.333694 74.096581,150.452499 83.300583,151.294022 
	C96.144249,152.468307 108.068283,157.456345 118.241882,165.788773 
	C121.810280,168.711365 125.279327,171.796860 128.450058,175.134460 
	C129.254028,175.980759 129.427765,178.868469 128.725784,179.479553 
	C121.708397,185.588516 114.319130,191.270844 107.313736,197.392761 
	C104.245323,200.074203 102.261681,198.616241 100.201691,196.545166 
	C90.357689,186.648331 78.216187,183.494492 65.130447,186.617737 
	C51.900078,189.775513 43.879978,198.676071 39.731777,212.148010 
	C32.132149,236.829010 58.258015,260.158386 80.835617,254.315567 
	C88.949020,252.215942 95.278946,248.205399 101.477898,243.175568 
	C102.667778,242.210098 105.431564,241.365845 106.220848,242.005692 
	C114.369499,248.611450 122.261551,255.533752 130.406662,262.523804 
	C119.643822,276.078918 106.358688,284.804901 89.759521,287.895203 
	C82.865440,289.178711 75.688889,290.308746 68.767273,289.797180 
	C54.257576,288.724792 40.449692,284.858368 28.420767,275.989044 
	C18.537870,268.702087 10.974174,259.504120 5.397443,248.690125 
	C3.697725,245.394150 2.974645,241.594513 1.402137,238.012787 
	C1.000000,226.312439 1.000000,214.624878 1.000003,202.468658 
z"/>
<path fill="#FFFFFF" opacity="1.000000" stroke="none" 
	d="
M1025.000000,248.531342 
	C1002.080505,249.000000 979.161072,249.000000 956.112366,249.000000 
	C957.951965,254.651764 963.034485,257.727203 970.205505,258.013336 
	C979.019043,258.364960 987.693115,258.435638 994.492126,251.319427 
	C995.016785,250.770294 997.103577,250.820892 997.723877,251.394104 
	C1003.988647,257.182556 1010.199890,263.040710 1016.119263,269.175446 
	C1016.826294,269.908234 1016.323669,273.114136 1015.337891,273.967133 
	C1007.634338,280.632690 999.156311,285.633118 988.972961,288.187103 
	C976.310242,291.362976 964.074951,290.323669 951.888550,286.922241 
	C941.283020,283.962036 932.770813,277.839447 926.210266,268.771088 
	C919.530334,259.537598 917.154175,248.935226 917.262939,238.159729 
	C917.378418,226.711609 919.886414,215.363342 927.982300,206.309875 
	C937.842407,195.283569 949.855469,188.975647 964.942505,187.786942 
	C974.180237,187.059128 983.182739,187.180847 991.803406,190.085663 
	C1006.964233,195.194321 1018.188171,204.781723 1023.038208,220.665726 
	C1023.254395,221.373825 1023.899109,221.951111 1024.672119,222.294678 
	C1025.000000,230.687561 1025.000000,239.375137 1025.000000,248.531342 
M971.580811,217.000000 
	C963.646484,217.005814 957.994324,220.188965 956.199463,225.794998 
	C966.751709,225.794998 977.251709,225.794998 987.817444,225.794998 
	C985.628174,219.028595 982.027222,217.000427 971.580811,217.000000 
z"/>
<path fill="#FFFFFF" opacity="1.000000" stroke="none" 
	d="
M631.466858,386.000000 
	C631.754333,384.105927 632.141602,381.934814 633.325989,380.365234 
	C638.766296,373.155487 635.667542,366.983765 631.962585,360.244141 
	C628.066284,353.156433 625.280151,345.460327 621.970337,338.047272 
	C620.886414,335.619598 619.681885,333.245880 617.489014,331.028687 
	C617.489014,345.791260 617.489014,360.553833 617.489014,375.982574 
	C613.321228,375.982574 609.738281,375.911407 606.159790,376.007385 
	C603.742004,376.072205 601.145020,375.858490 598.946716,376.651947 
	C585.813965,381.391846 568.695312,374.015625 567.099854,358.067413 
	C566.246094,349.532196 566.778015,341.144653 573.850464,334.541260 
	C580.792480,328.059540 591.770630,325.968628 600.936951,329.985413 
	C601.952209,330.430267 603.010803,330.776154 604.049316,331.167938 
	C604.010071,330.619629 603.970825,330.071289 603.931580,329.522949 
	C606.291443,329.015320 608.652161,328.085266 611.010986,328.090118 
	C615.572388,328.099487 620.169067,328.348694 624.684875,327.909882 
	C630.962769,327.299774 635.773865,328.024200 637.067810,335.550598 
	C637.571228,338.478638 639.235596,341.228210 640.506165,343.997101 
	C641.709717,346.619873 643.090027,349.161591 645.006714,352.954254 
	C647.561157,347.204254 650.015442,342.281128 651.962463,337.164978 
	C655.431946,328.048370 655.303650,327.999573 664.879517,328.000000 
	C666.856201,328.000092 668.832947,328.000000 671.919189,328.000000 
	C669.554199,333.488403 667.504883,338.294952 665.415344,343.084015 
	C659.285522,357.133270 653.139648,371.175568 647.000061,385.610291 
	C641.977905,386.000000 636.955811,386.000000 631.466858,386.000000 
M581.001587,349.660645 
	C579.375244,356.674347 582.295105,362.525787 588.573120,363.763733 
	C595.156189,365.061859 600.184570,362.727661 602.673950,355.662018 
	C604.359680,350.877502 600.937805,344.548737 596.014526,342.530426 
	C590.100769,340.106079 584.564636,342.444427 581.001587,349.660645 
z"/>
<path fill="#FFFFFF" opacity="1.000000" stroke="none" 
	d="
M519.992920,175.338989 
	C523.075195,189.317474 523.361938,203.249664 508.119476,214.562057 
	C515.008667,215.800461 520.063354,219.697586 524.218750,224.781281 
	C528.282593,229.753113 530.726807,235.201385 531.215515,241.976303 
	C531.821167,250.371368 531.781799,258.653625 527.825623,265.951782 
	C521.531738,277.562439 512.141418,286.465393 498.242279,286.819275 
	C473.041565,287.460938 447.812744,287.001190 422.295746,287.001190 
	C422.295746,243.072052 422.295746,198.344299 422.295746,153.229126 
	C423.582947,153.158035 425.013702,153.011276 426.444580,153.010208 
	C446.604187,152.995193 466.763794,152.975967 486.923370,153.008179 
	C501.166107,153.030945 511.792908,159.157166 518.427429,171.901962 
	C518.949951,172.905685 519.462402,173.914597 519.992920,175.338989 
M462.709320,255.996063 
	C470.860657,255.454681 479.053467,255.243591 487.145355,254.228302 
	C491.013367,253.742966 495.601501,247.411240 494.820923,243.979004 
	C493.823700,239.594330 492.167511,234.653442 486.842438,234.065506 
	C478.410431,233.134552 469.886505,233.036316 460.633362,232.544922 
	C461.031860,240.941437 461.387878,248.442474 462.709320,255.996063 
M461.000000,199.429520 
	C461.000000,201.530609 461.000000,203.631683 461.000000,205.999039 
	C466.303406,205.999039 471.104980,206.200256 475.882385,205.946365 
	C481.422943,205.651901 486.287018,201.765350 486.992310,197.536423 
	C487.930267,191.912399 485.531250,185.977417 479.792755,184.682587 
	C473.884399,183.349411 467.441162,184.386566 461.000000,184.386566 
	C461.000000,189.184219 461.000000,193.814255 461.000000,199.429520 
z"/>
<path fill="#FFFFFF" opacity="1.000000" stroke="none" 
	d="
M830.069092,328.002075 
	C821.205139,325.922882 813.032959,323.334381 805.908264,318.055084 
	C803.388794,316.188202 803.492310,314.657867 805.095459,312.374084 
	C810.016663,305.363617 814.824219,298.273346 819.701355,291.177124 
	C826.694153,293.433655 833.716797,296.077332 840.939636,297.947906 
	C853.895569,301.303223 863.924561,296.954651 870.957886,285.533600 
	C871.284851,285.002625 871.718933,284.537598 873.075684,282.787201 
	C870.146118,283.346008 868.316895,283.358368 866.785706,284.040222 
	C854.625732,289.455017 842.188232,289.180084 829.621277,285.983856 
	C821.291687,283.865356 814.754333,278.867493 808.962646,272.710297 
	C797.149902,260.151917 794.833069,244.551422 797.300903,228.749298 
	C800.317322,209.434570 812.461609,194.388382 833.702148,189.402695 
	C843.859314,187.018539 854.700806,187.134155 864.580017,192.257126 
	C866.547729,193.277496 868.278503,194.754868 870.691895,196.416214 
	C870.871521,193.781616 871.019714,191.608459 871.180420,189.251495 
	C871.860840,189.164185 872.493835,189.012909 873.126953,189.012100 
	C884.253601,188.997696 895.380188,189.001678 907.000000,189.001678 
	C907.000000,190.897354 907.000000,192.505157 907.000000,194.112946 
	C907.000000,222.093674 907.070435,250.074677 906.964478,278.055023 
	C906.923523,288.859558 904.794617,299.259491 898.850891,308.488586 
	C894.002136,316.017548 887.039795,321.331573 878.975647,324.903656 
	C868.182129,329.684814 856.619568,330.538239 844.981750,329.931366 
	C840.137329,329.678802 835.332458,328.669281 830.069092,328.002075 
M863.896606,225.369781 
	C861.449951,224.246567 859.105652,222.705765 856.537964,222.076477 
	C847.963989,219.975174 839.118652,224.548264 834.756531,232.788177 
	C832.584106,236.891769 832.620911,241.423370 834.844666,245.114227 
	C841.871460,256.776550 854.638855,258.735840 865.138184,250.995331 
	C868.417969,248.577332 872.918335,239.784393 871.572815,237.257217 
	C869.478394,233.323242 866.816284,229.691483 863.896606,225.369781 
z"/>
<path fill="#FFFFFF" opacity="1.000000" stroke="none" 
	d="
M687.670593,202.833221 
	C696.216980,194.898804 705.511169,189.866257 717.126404,188.825546 
	C726.042114,188.026703 734.471436,188.595688 742.588501,192.283432 
	C744.589539,193.192551 746.290710,194.761703 749.000000,196.626389 
	C749.000000,188.891403 749.000000,181.868530 749.000000,174.845673 
	C749.000000,167.720428 749.000000,160.595200 749.000000,153.237335 
	C761.047180,153.237335 772.777771,153.237335 784.754944,153.237335 
	C784.754944,198.010391 784.754944,242.718369 784.754944,287.713379 
	C773.049683,287.713379 761.313843,287.713379 749.159058,287.713379 
	C749.053467,285.948853 748.941101,284.072479 748.821411,282.072388 
	C744.481628,283.881073 740.522278,286.187042 736.256042,287.197296 
	C716.294189,291.924225 698.611084,287.788391 685.291931,271.534302 
	C678.925293,263.764740 674.831238,254.603653 674.914795,243.957596 
	C674.997009,233.481171 674.565613,222.994125 680.165100,213.563583 
	C682.325195,209.925583 684.965942,206.572968 687.670593,202.833221 
M728.791687,255.967865 
	C735.177246,256.126129 740.460083,253.466171 745.080933,249.363556 
	C748.030273,246.745010 750.269165,237.310547 748.692139,234.220337 
	C744.438599,225.885071 736.732544,219.493210 725.700073,222.050049 
	C714.488647,224.648361 708.149780,236.773560 714.013794,247.006332 
	C717.086914,252.368851 722.256226,254.531143 728.791687,255.967865 
z"/>
<path fill="#EFAF22" opacity="1.000000" stroke="none" 
	d="
M196.002136,187.994339 
	C213.789017,191.591431 226.533066,201.180313 234.556030,217.059631 
	C243.706055,235.169662 239.369385,262.015198 223.318451,276.077515 
	C210.984695,286.883179 196.808731,291.707977 180.940918,290.849945 
	C159.055634,289.666504 138.254761,278.147491 130.713028,254.244949 
	C125.225060,236.851532 128.086472,220.862167 139.743942,206.666275 
	C149.338852,194.982056 161.915756,188.562683 176.786499,187.152390 
	C182.964996,186.566467 189.302765,187.659607 196.002136,187.994339 
M195.255905,252.946457 
	C196.395432,251.573502 197.528015,250.194717 198.675690,248.828583 
	C203.635254,242.925064 203.775208,234.037460 199.592682,229.590561 
	C192.325195,221.863724 186.460251,217.702545 174.025177,223.983093 
	C165.750488,228.162354 162.210434,242.292526 168.599731,248.902466 
	C175.532898,256.075073 183.790894,259.168915 195.255905,252.946457 
z"/>
<path fill="#EFAF22" opacity="1.000000" stroke="none" 
	d="
M399.311279,202.746674 
	C403.701324,210.850235 405.100037,219.211761 405.041443,227.993164 
	C404.909393,247.785919 405.000000,267.580170 405.000000,287.686310 
	C392.681091,287.686310 380.627197,287.686310 368.000000,287.686310 
	C368.000000,285.413544 368.000000,283.143219 368.000000,280.872864 
	C368.000000,265.552704 368.147064,250.230576 367.941437,234.913177 
	C367.829102,226.543457 363.521271,220.537689 354.203949,220.789261 
	C346.859100,220.987564 341.068512,227.615112 341.022034,236.574158 
	C340.942566,251.893906 341.000061,267.214355 341.000000,282.534515 
	C341.000000,284.169159 341.000000,285.803802 341.000000,288.000000 
	C334.576691,288.000000 328.475494,288.000000 322.374268,288.000000 
	C316.416565,288.000000 310.458862,288.000000 304.254120,288.000000 
	C304.254120,254.904022 304.254120,222.196884 304.254120,189.244659 
	C316.469482,189.244659 328.531250,189.244659 340.990173,189.244659 
	C340.990173,191.849228 340.990173,194.261444 340.990173,198.142761 
	C349.685028,188.248199 359.773102,187.120148 371.142395,187.675903 
	C383.235352,188.267029 392.283264,192.751785 399.311279,202.746674 
z"/>
<path fill="#FFFFFF" opacity="1.000000" stroke="none" 
	d="
M581.000000,274.990601 
	C581.000000,279.466827 581.000000,283.444580 581.000000,287.710297 
	C568.721313,287.710297 556.650879,287.710297 544.289185,287.710297 
	C544.289185,255.055130 544.289185,222.323196 544.289185,189.295242 
	C556.269470,189.295242 568.341919,189.295242 580.918518,189.295242 
	C580.918518,191.388763 580.918518,193.580399 580.918518,197.174210 
	C591.376465,186.911209 603.145935,186.248672 615.749146,188.339203 
	C615.749146,199.304672 615.749146,210.394394 615.749146,221.881973 
	C611.724915,221.586639 607.712708,220.912857 603.734558,221.074738 
	C593.729919,221.481812 584.437622,226.428192 581.770996,236.755493 
	C581.371826,238.301010 581.042480,239.916946 581.033386,241.502335 
	C580.970093,252.498627 581.000000,263.495453 581.000000,274.990601 
z"/>
<path fill="#EFAF22" opacity="1.000000" stroke="none" 
	d="
M251.000000,266.999878 
	C251.000000,240.891830 251.000000,215.283783 251.000000,189.338165 
	C263.261353,189.338165 275.309235,189.338165 287.679871,189.338165 
	C287.679871,221.943802 287.679871,254.632996 287.679871,287.661560 
	C275.739288,287.661560 263.691376,287.661560 251.000000,287.661560 
	C251.000000,281.007996 251.000000,274.253906 251.000000,266.999878 
z"/>
<path fill="#FFFFFF" opacity="1.000000" stroke="none" 
	d="
M626.000000,194.111191 
	C626.000000,192.180176 626.000000,190.737717 626.000000,189.151337 
	C638.443481,189.151337 650.396362,189.151337 662.674927,189.151337 
	C662.674927,221.877014 662.674927,254.614014 662.674927,287.675903 
	C650.790344,287.675903 638.717163,287.675903 626.000000,287.675903 
	C626.000000,256.768463 626.000000,225.684097 626.000000,194.111191 
z"/>
<path fill="#FFFFFF" opacity="1.000000" stroke="none" 
	d="
M545.165955,367.997864 
	C541.110535,363.325500 536.927185,358.756592 533.040100,353.948181 
	C529.907471,350.073029 527.132690,345.908600 523.360962,340.719330 
	C523.360962,353.168762 523.360962,364.298950 523.360962,375.710876 
	C518.056519,375.710876 513.320068,375.710876 508.289429,375.710876 
	C508.289429,355.399048 508.289429,335.006439 508.289429,314.000885 
	C512.086243,314.000885 516.030029,313.789093 519.929077,314.114258 
	C521.316589,314.229980 522.961060,315.362671 523.866394,316.518219 
	C531.543945,326.317444 539.071594,336.233978 546.674866,346.091705 
	C547.018982,346.537872 547.656921,346.757355 548.698364,347.432892 
	C548.698364,336.134033 548.698364,325.430084 548.698364,314.363495 
	C553.783691,314.363495 558.526978,314.363495 564.000000,314.363495 
	C564.000000,316.622131 564.000000,319.201263 564.000000,321.780365 
	C564.000000,333.269501 563.845581,344.761902 564.088196,356.245911 
	C564.167419,359.995789 562.825928,361.401489 559.045654,361.923828 
	C554.243652,364.426880 549.704834,366.212372 545.165955,367.997864 
z"/>
<path fill="#FFFFFF" opacity="1.000000" stroke="none" 
	d="
M682.060120,376.027588 
	C670.812622,372.714539 665.988159,359.906799 667.577820,348.447357 
	C669.042603,337.888031 674.619019,331.769501 683.988953,329.245361 
	C688.865662,327.931641 694.473083,328.843597 699.673584,329.430695 
	C702.143188,329.709473 703.805664,332.401154 706.578918,328.665588 
	C707.877258,326.916718 713.044189,328.039825 716.734497,327.846832 
	C716.734497,343.951172 716.734497,359.665009 716.734497,376.173340 
	C713.115784,375.894135 709.452148,375.464783 705.781311,375.390503 
	C703.960083,375.353607 702.052063,375.748749 700.310547,376.329865 
	C694.302979,378.334473 688.365601,379.449982 682.060120,376.027588 
M696.658142,342.151703 
	C694.836426,342.101135 693.014648,342.006500 691.192993,342.008362 
	C685.995178,342.013702 682.418335,344.506256 681.285828,349.330200 
	C680.230469,353.825592 680.662415,358.562256 684.310547,361.501617 
	C688.082275,364.540588 693.169373,365.224548 697.504700,362.673950 
	C701.223694,360.485962 703.402344,356.985870 703.141846,352.005981 
	C702.904968,347.478241 699.988953,345.320343 696.658142,342.151703 
z"/>
<path fill="#FFFFFF" opacity="1.000000" stroke="none" 
	d="
M730.357178,361.139526 
	C730.757935,360.574615 730.785461,360.182831 730.994690,359.968872 
	C738.468262,352.327698 731.791321,347.040039 727.836792,341.389130 
	C724.899475,337.191559 721.726868,333.158630 718.505920,328.847412 
	C731.366943,325.919067 735.954224,327.819641 744.297485,339.543549 
	C746.814148,335.787903 749.190552,332.241547 751.874451,328.236359 
	C756.745300,328.236359 762.278687,328.236359 769.088013,328.236359 
	C766.826599,331.730896 765.110229,334.531067 763.246887,337.229706 
	C760.014832,341.910828 756.277954,346.314911 753.687744,351.319153 
	C753.010132,352.628204 755.615906,355.824280 756.994385,357.973816 
	C760.692078,363.739807 764.541687,369.408417 768.917542,375.999268 
	C762.905640,375.999268 757.823364,376.752625 753.149414,375.697418 
	C750.622192,375.126862 748.430237,371.705627 746.744385,369.138702 
	C744.882202,366.303162 743.869934,366.134094 742.275574,369.172943 
	C741.105408,371.403168 739.612122,373.463776 738.125671,375.817078 
	C733.104065,375.817078 727.647827,375.817078 720.810364,375.817078 
	C724.211670,370.518921 727.140137,365.957245 730.357178,361.139526 
z"/>
<path fill="#FFFFFF" opacity="1.000000" stroke="none" 
	d="
M289.347473,156.793396 
	C291.249573,172.361343 283.721649,180.046341 270.220642,181.896194 
	C258.284424,183.531647 246.507950,169.365860 249.125183,157.545105 
	C251.740311,145.733948 259.642395,141.125305 268.592316,140.219482 
	C276.040802,139.465622 288.962708,146.051270 289.347473,156.793396 
z"/>
<path fill="#EFAF22" opacity="1.000000" stroke="none" 
	d="
M638.496765,141.216125 
	C648.057739,138.744720 655.137207,142.147308 661.093689,149.011124 
	C669.126038,158.266937 663.122253,176.577393 651.471497,180.238495 
	C645.703552,182.050995 640.672974,181.680313 635.472961,179.726395 
	C628.688599,177.177170 623.282837,171.175064 623.952393,158.561935 
	C624.370850,150.679657 629.366577,144.335709 638.496765,141.216125 
z"/>
<path fill="#FFFFFF" opacity="1.000000" stroke="none" 
	d="
M420.000000,338.002533 
	C420.000000,332.532471 420.000000,327.561615 420.000000,322.026367 
	C426.106323,322.026367 432.089386,321.477051 437.926666,322.165039 
	C445.277802,323.031403 449.434967,331.935913 446.127136,339.229828 
	C444.974762,341.770874 445.165161,343.283081 446.983429,345.271820 
	C451.839813,350.583527 451.088043,357.166504 448.713562,362.761292 
	C446.570496,367.810852 441.142853,369.390900 435.421753,369.059540 
	C430.474792,368.772980 425.498077,369.000000 420.000000,369.000000 
	C420.000000,358.669189 420.000000,348.585480 420.000000,338.002533 
M435.199188,362.000000 
	C439.685303,362.383209 442.091583,360.066772 442.988434,355.904236 
	C443.842926,351.938568 441.732635,349.244843 438.355530,348.286011 
	C434.545044,347.204224 430.441956,347.153198 426.205597,346.621155 
	C426.205597,352.140625 426.205597,356.882721 426.205597,362.000000 
	C429.027283,362.000000 431.649902,362.000000 435.199188,362.000000 
M427.654480,329.004364 
	C427.104034,329.616180 426.109192,330.206146 426.077850,330.843475 
	C425.916779,334.121246 426.003174,337.411163 426.003174,341.310272 
	C429.646332,340.823853 432.883240,340.713196 435.936462,339.906982 
	C440.273712,338.761688 440.681335,335.267273 438.289246,331.418091 
	C435.575714,327.051575 431.764008,329.917664 427.654480,329.004364 
z"/>
<path fill="#FFFFFF" opacity="1.000000" stroke="none" 
	d="
M460.979553,355.025085 
	C458.500092,348.383728 456.040253,342.144897 453.542603,335.809998 
	C461.253571,334.462799 460.870697,333.969727 463.051575,340.412079 
	C464.788452,345.542877 466.973419,350.523804 469.033783,355.540771 
	C469.273560,356.124573 469.983154,356.883209 470.482880,356.889130 
	C470.983185,356.895081 471.716095,356.154419 471.964233,355.576630 
	C474.032349,350.760773 476.524872,346.045654 477.882111,341.027740 
	C479.407745,335.387543 482.420624,333.715881 488.016754,335.472839 
	C481.546387,350.756378 475.042755,366.118530 468.430511,381.737213 
	C466.294098,381.737213 463.734955,381.737213 460.688812,381.737213 
	C462.867645,377.040070 466.407043,372.745178 466.424683,368.435852 
	C466.442413,364.107239 462.952148,359.764313 460.979553,355.025085 
z"/>
<path fill="#FAC70A" opacity="1.000000" stroke="none" 
	d="
M544.993958,368.325470 
	C549.704834,366.212372 554.243652,364.426880 558.974121,362.319885 
	C560.639099,361.998383 562.112610,361.998383 563.792725,361.998383 
	C563.792725,366.634644 563.792725,371.042297 563.792725,375.725891 
	C553.877625,375.725891 544.077209,375.725891 534.276855,375.725891 
	C534.103333,375.364960 533.929749,375.004059 533.756226,374.643127 
	C537.444824,372.646454 541.133362,370.649750 544.993958,368.325470 
z"/>
<path fill="#000000" opacity="1.000000" stroke="none" 
	d="
M972.040283,217.000000 
	C982.027222,217.000427 985.628174,219.028595 987.817444,225.794998 
	C977.251709,225.794998 966.751709,225.794998 956.199463,225.794998 
	C957.994324,220.188965 963.646484,217.005814 972.040283,217.000000 
z"/>
<path fill="#000000" opacity="1.000000" stroke="none" 
	d="
M581.012817,349.261475 
	C584.564636,342.444427 590.100769,340.106079 596.014526,342.530426 
	C600.937805,344.548737 604.359680,350.877502 602.673950,355.662018 
	C600.184570,362.727661 595.156189,365.061859 588.573120,363.763733 
	C582.295105,362.525787 579.375244,356.674347 581.012817,349.261475 
z"/>
<path fill="#000000" opacity="1.000000" stroke="none" 
	d="
M462.226624,255.969788 
	C461.387878,248.442474 461.031860,240.941437 460.633362,232.544922 
	C469.886505,233.036316 478.410431,233.134552 486.842438,234.065506 
	C492.167511,234.653442 493.823700,239.594330 494.820923,243.979004 
	C495.601501,247.411240 491.013367,253.742966 487.145355,254.228302 
	C479.053467,255.243591 470.860657,255.454681 462.226624,255.969788 
z"/>
<path fill="#000000" opacity="1.000000" stroke="none" 
	d="
M461.000000,198.936890 
	C461.000000,193.814255 461.000000,189.184219 461.000000,184.386566 
	C467.441162,184.386566 473.884399,183.349411 479.792755,184.682587 
	C485.531250,185.977417 487.930267,191.912399 486.992310,197.536423 
	C486.287018,201.765350 481.422943,205.651901 475.882385,205.946365 
	C471.104980,206.200256 466.303406,205.999039 461.000000,205.999039 
	C461.000000,203.631683 461.000000,201.530609 461.000000,198.936890 
z"/>
<path fill="#000000" opacity="1.000000" stroke="none" 
	d="
M864.145691,225.650696 
	C866.816284,229.691483 869.478394,233.323242 871.572815,237.257217 
	C872.918335,239.784393 868.417969,248.577332 865.138184,250.995331 
	C854.638855,258.735840 841.871460,256.776550 834.844666,245.114227 
	C832.620911,241.423370 832.584106,236.891769 834.756531,232.788177 
	C839.118652,224.548264 847.963989,219.975174 856.537964,222.076477 
	C859.105652,222.705765 861.449951,224.246567 864.145691,225.650696 
z"/>
<path fill="#000000" opacity="1.000000" stroke="none" 
	d="
M728.418701,255.764114 
	C722.256226,254.531143 717.086914,252.368851 714.013794,247.006332 
	C708.149780,236.773560 714.488647,224.648361 725.700073,222.050049 
	C736.732544,219.493210 744.438599,225.885071 748.692139,234.220337 
	C750.269165,237.310547 748.030273,246.745010 745.080933,249.363556 
	C740.460083,253.466171 735.177246,256.126129 728.418701,255.764114 
z"/>
<path fill="#000000" opacity="1.000000" stroke="none" 
	d="
M194.875244,253.015442 
	C183.790894,259.168915 175.532898,256.075073 168.599731,248.902466 
	C162.210434,242.292526 165.750488,228.162354 174.025177,223.983093 
	C186.460251,217.702545 192.325195,221.863724 199.592682,229.590561 
	C203.775208,234.037460 203.635254,242.925064 198.675690,248.828583 
	C197.528015,250.194717 196.395432,251.573502 194.875244,253.015442 
z"/>
<path fill="#000000" opacity="1.000000" stroke="none" 
	d="
M696.932007,342.463379 
	C699.988953,345.320343 702.904968,347.478241 703.141846,352.005981 
	C703.402344,356.985870 701.223694,360.485962 697.504700,362.673950 
	C693.169373,365.224548 688.082275,364.540588 684.310547,361.501617 
	C680.662415,358.562256 680.230469,353.825592 681.285828,349.330200 
	C682.418335,344.506256 685.995178,342.013702 691.192993,342.008362 
	C693.014648,342.006500 694.836426,342.101135 696.932007,342.463379 
z"/>
<path fill="#000000" opacity="1.000000" stroke="none" 
	d="
M434.735840,362.000000 
	C431.649902,362.000000 429.027283,362.000000 426.205597,362.000000 
	C426.205597,356.882721 426.205597,352.140625 426.205597,346.621155 
	C430.441956,347.153198 434.545044,347.204224 438.355530,348.286011 
	C441.732635,349.244843 443.842926,351.938568 442.988434,355.904236 
	C442.091583,360.066772 439.685303,362.383209 434.735840,362.000000 
z"/>
<path fill="#000000" opacity="1.000000" stroke="none" 
	d="
M428.125366,329.002319 
	C431.764008,329.917664 435.575714,327.051575 438.289246,331.418091 
	C440.681335,335.267273 440.273712,338.761688 435.936462,339.906982 
	C432.883240,340.713196 429.646332,340.823853 426.003174,341.310272 
	C426.003174,337.411163 425.916779,334.121246 426.077850,330.843475 
	C426.109192,330.206146 427.104034,329.616180 428.125366,329.002319 
z"/>
</svg>