<svg version="1.1" id="Layer_1" xmlns="http://www.w3.org/2000/svg" xmlns:xlink="http://www.w3.org/1999/xlink" x="0px" y="0px"
	 width="100%" viewBox="0 0 367 137" enable-background="new 0 0 367 137" xml:space="preserve">
<path fill="#FEFDFD" opacity="1.000000" stroke="none" 
	d="
M228.000000,138.000000 
	C152.451279,138.000000 76.902573,138.000000 1.000000,138.000000 
	C1.000000,120.314011 1.000000,102.625664 1.329955,84.623367 
	C4.182748,94.650421 11.089064,100.738007 21.146070,102.721107 
	C30.801619,104.625046 39.629154,102.425461 46.679913,94.147217 
	C43.792439,91.706581 41.050842,89.389252 38.381767,87.133224 
	C26.348606,94.924408 24.418732,93.444496 17.699078,87.838005 
	C12.927425,83.856827 12.533554,76.268791 16.615799,71.553383 
	C18.564909,69.301964 21.717861,66.695908 24.316130,66.705879 
	C29.125765,66.724304 33.928478,68.548500 39.717342,69.839943 
	C41.241928,68.558090 43.882565,66.337868 46.472992,64.159866 
	C39.360027,53.548492 24.639894,53.510765 14.470579,57.682533 
	C7.167786,60.678368 3.849464,67.202408 1.000000,74.000000 
	C1.000000,49.713650 1.000000,25.427298 1.000000,1.000000 
	C52.020813,1.000000 103.041748,1.000000 154.380524,1.353977 
	C128.675980,5.860018 109.028976,18.974279 96.524178,42.844807 
	C97.669418,43.494682 98.481186,44.016392 99.343216,44.434486 
	C104.577873,46.973354 105.817764,47.752064 109.333435,41.550079 
	C114.186829,32.988228 121.300713,26.401400 129.673889,21.268280 
	C155.117920,5.669972 187.944458,8.434278 209.816315,29.773869 
	C215.045532,34.875832 219.095520,41.186424 223.917938,47.229416 
	C226.284607,46.017761 228.966919,44.644512 231.729431,43.230209 
	C229.016510,35.469540 224.084595,30.173286 218.887329,24.899879 
	C209.622467,15.499265 199.292114,7.912076 186.444382,4.327853 
	C181.380875,2.915253 176.153015,2.091752 171.000000,0.999998 
	C236.563187,1.000000 302.126373,1.000000 368.000000,1.000000 
	C368.000000,27.686758 368.000000,54.374722 367.757263,81.270676 
	C365.130341,73.168053 358.781036,66.662773 343.957001,68.166023 
	C338.632050,68.706001 331.813660,74.993416 330.311096,81.264236 
	C328.371918,89.357201 331.912689,97.446312 338.990692,101.093353 
	C347.253967,105.351128 358.176636,103.691147 364.922607,96.213242 
	C362.619263,94.276985 360.258148,92.292168 358.052704,90.438210 
	C349.463593,95.052299 346.080933,95.419609 343.268951,88.999207 
	C347.496765,88.999207 351.662415,89.129158 355.816132,88.962273 
	C359.883759,88.798843 363.939209,88.333069 368.000000,88.000000 
	C368.000000,104.627373 368.000000,121.254753 368.000000,138.000000 
	C322.979156,138.000000 277.958252,138.000000 232.518646,137.640778 
	C234.682144,131.438858 237.264297,125.596169 239.984314,119.441566 
	C232.610016,117.360016 234.880417,125.146873 231.535248,126.756119 
	C227.184998,117.556122 228.198730,119.441025 223.862747,119.582359 
	C224.956818,125.801041 231.304138,130.854492 228.000000,138.000000 
M83.768463,94.059746 
	C83.875092,93.714615 83.981720,93.369484 84.593819,92.457680 
	C88.875496,81.898636 83.531548,72.052757 72.006950,68.360275 
	C63.867550,65.752396 53.773590,68.673241 49.097462,77.435768 
	C44.746010,85.589882 47.014221,94.139915 55.275478,100.290733 
	C55.275478,100.290733 55.656639,100.374886 55.748512,100.354378 
	C55.748512,100.354378 55.706314,100.270233 55.938721,100.771919 
	C56.282116,100.884056 56.625507,100.996193 57.477375,101.653366 
	C68.307022,105.805191 76.935402,103.557770 83.289246,94.720970 
	C83.289246,94.720970 83.373535,94.336578 83.349266,94.241943 
	C83.349266,94.241943 83.265060,94.291473 83.768463,94.059746 
M158.959244,124.012360 
	C158.959244,124.012360 159.024429,124.026764 159.649292,123.517174 
	C159.454330,123.020638 159.259354,122.524094 159.008347,121.993698 
	C159.008347,121.993698 159.050842,122.040726 159.721588,121.957260 
	C160.930557,116.063721 159.102097,114.730743 151.434601,116.084290 
	C151.434601,121.081688 151.434601,126.110634 151.434601,131.770493 
	C154.115204,131.568115 156.680832,131.840759 158.846405,131.036362 
	C160.149002,130.552505 161.302933,128.480515 161.593475,126.946091 
	C161.745514,126.143066 159.889511,124.959831 158.959244,124.012360 
M184.654999,134.173630 
	C185.105362,134.108841 185.555710,134.044067 186.502472,134.077179 
	C186.651077,133.997437 186.799698,133.917694 187.704483,133.482742 
	C187.704483,129.701645 187.704483,125.920555 187.704483,121.197479 
	C191.667770,125.634750 194.731415,129.064804 197.367661,132.016327 
	C199.427017,130.155609 200.646545,129.053711 202.117996,127.056923 
	C201.750748,122.391747 201.383499,117.726570 200.347183,112.874863 
	C199.892639,112.937042 199.438095,112.999214 198.130829,113.280655 
	C198.089478,117.187393 198.048141,121.094124 197.293198,125.129036 
	C193.849152,121.134300 190.405106,117.139572 186.503876,112.943298 
	C186.503876,112.943298 186.015320,113.047974 185.346573,112.873466 
	C184.893280,112.931648 184.439972,112.989822 183.434921,113.002945 
	C183.327393,113.324265 183.219864,113.645584 182.952316,114.895660 
	C183.005692,120.940178 183.059067,126.984688 183.065720,133.589386 
	C183.374954,133.719360 183.684189,133.849319 184.654999,134.173630 
M91.591209,102.624474 
	C95.488411,102.624474 99.385612,102.624474 103.228401,102.624474 
	C103.228401,90.970085 103.228401,79.828171 103.228401,68.203766 
	C99.150864,68.429665 95.552917,68.628990 91.212204,69.309402 
	C91.211327,80.173401 91.210449,91.037392 91.591209,102.624474 
M195.858734,70.920647 
	C195.917297,80.947929 195.975861,90.975204 195.994003,101.845337 
	C199.926437,102.243660 203.858856,102.641991 208.264359,103.088234 
	C208.264359,99.147430 208.160477,96.013016 208.292801,92.888618 
	C208.432388,89.592781 208.797379,86.306496 209.620728,82.593758 
	C212.011154,81.395752 214.325958,79.436966 216.810898,79.189964 
	C220.004272,78.872528 221.334381,78.014938 221.043884,74.785843 
	C220.872726,72.883392 221.012619,70.952950 221.012619,68.887611 
	C217.938080,68.887611 215.481598,68.887611 212.412659,68.917831 
	C211.945663,69.279716 211.478653,69.641602 210.483597,70.090286 
	C210.321823,70.391533 210.160049,70.692772 209.168732,71.186974 
	C207.069977,68.056313 199.549698,67.375244 195.858734,70.920647 
M110.602371,102.618111 
	C114.382034,102.618111 118.161697,102.618111 122.668625,102.618111 
	C122.668625,97.464943 122.664406,92.538010 122.669662,87.611092 
	C122.676704,81.003433 124.029312,78.621284 127.970306,78.847061 
	C133.717590,79.176308 132.890564,83.606171 132.930527,87.356926 
	C132.984497,92.424667 132.943954,97.493416 132.943954,102.477005 
	C137.178040,102.477005 140.632172,102.477005 144.881393,101.962242 
	C144.850632,93.672195 144.819855,85.382141 144.737457,76.379440 
	C142.441666,67.042473 130.407806,66.243034 123.556343,70.501663 
	C119.622307,66.796570 115.166245,68.615578 110.210648,69.315712 
	C110.213097,80.178276 110.215546,91.040840 110.602371,102.618111 
M324.696075,104.366173 
	C324.755859,103.922363 324.815643,103.478561 325.079956,102.111961 
	C325.064789,91.410309 325.049622,80.708649 324.888275,69.102547 
	C320.974945,69.394478 317.061646,69.686409 312.862305,70.692123 
	C309.777283,69.786606 306.702972,68.168144 303.605011,68.121414 
	C296.791443,68.018639 291.358948,71.190186 288.445923,77.502441 
	C285.459076,83.974739 285.652344,90.599213 290.179657,96.311966 
	C294.340790,101.562691 300.075287,103.836411 306.856354,102.600792 
	C309.088654,102.194031 311.257874,101.441101 313.706390,100.778702 
	C310.820618,107.895729 306.581329,108.760086 294.480713,104.934669 
	C292.777802,107.577560 291.039398,110.275566 289.173218,113.171898 
	C296.203247,117.409508 303.247498,118.400970 310.675842,117.170837 
	C318.235565,115.918953 323.081635,111.393547 324.696075,104.366173 
M152.291565,64.568375 
	C152.291565,77.160614 152.291565,89.752853 152.291565,102.769112 
	C160.272766,102.769112 167.720749,102.825523 175.167480,102.753212 
	C182.574463,102.681290 187.514359,99.702492 189.581436,94.243919 
	C192.137955,87.492798 191.342606,85.114708 184.223068,78.964088 
	C182.665710,77.618690 181.687592,76.416031 183.737167,74.806450 
	C191.085831,69.035324 186.473419,57.727100 178.982269,56.388569 
	C170.394684,54.854118 161.322281,56.032799 152.291595,56.032799 
	C152.291595,58.612896 152.291595,61.103363 152.291565,64.568375 
M251.064575,70.337189 
	C242.883224,75.977196 240.329056,85.955887 244.903503,94.407585 
	C249.201294,102.348129 258.264954,105.132149 267.242828,101.267700 
	C267.778839,101.036987 268.717438,100.502769 268.783112,100.595459 
	C272.388916,105.685181 277.159790,101.222229 281.285400,102.957886 
	C281.285400,86.593712 281.285400,71.037376 281.285400,55.514702 
	C277.137756,55.514702 273.366943,55.514702 269.244995,55.514702 
	C269.244995,60.709717 269.244995,65.657372 269.244995,70.946442 
	C263.242737,68.457680 257.596375,66.460754 251.064575,70.337189 
M229.679474,102.770676 
	C232.292999,102.770676 234.906540,102.770676 237.703735,102.770676 
	C237.703735,91.164299 237.703735,80.007408 237.703735,68.937805 
	C233.378235,68.937805 229.345657,68.937805 225.137283,68.937805 
	C225.137283,79.473503 225.233551,89.588852 225.077576,99.700302 
	C225.031876,102.663170 226.507111,102.976738 229.679474,102.770676 
M221.169205,119.782257 
	C217.797424,119.497597 214.421570,118.943039 211.054886,118.994148 
	C206.481110,119.063576 204.039917,121.852936 204.074661,126.325729 
	C204.110504,130.941605 207.235809,134.293594 211.675873,134.222092 
	C213.733627,134.188965 215.952118,133.099579 217.800980,133.595474 
	C220.941422,134.437790 221.248123,132.970078 221.251022,130.662521 
	C221.255173,127.348846 221.247269,124.035156 221.169205,119.782257 
M243.329498,133.032196 
	C247.391479,133.342270 251.451538,133.763474 255.517624,133.833374 
	C256.077881,133.843018 257.120178,132.132233 257.165466,131.181122 
	C257.353333,127.233986 257.244354,123.272728 257.244354,118.892563 
	C251.563400,119.473190 245.500107,115.366760 241.398132,121.668884 
	C238.984253,125.377510 239.529007,129.278015 243.329498,133.032196 
M227.133224,52.646030 
	C224.227234,55.243992 223.673721,58.732998 225.854126,61.475422 
	C227.292587,63.284630 230.553558,64.572914 232.941513,64.488174 
	C236.817520,64.350632 239.124588,59.891254 238.106018,56.041885 
	C236.976822,51.774406 232.973343,50.274288 227.133224,52.646030 
M99.826126,52.639854 
	C96.403107,48.914097 93.778313,51.686085 91.637619,54.034637 
	C89.314796,56.583008 90.288513,61.590527 92.963425,63.367912 
	C96.021797,65.400093 101.337120,64.392075 103.114372,61.442844 
	C105.121895,58.111504 104.197525,55.057697 99.826126,52.639854 
M271.412354,123.833664 
	C272.274567,122.471321 273.136749,121.108978 273.998932,119.746635 
	C273.768890,119.355667 273.538879,118.964691 273.308838,118.573715 
	C271.238281,119.437889 269.167725,120.302063 267.383179,121.046875 
	C265.332550,120.285522 263.017548,119.426018 260.702545,118.566513 
	C260.541992,118.910721 260.381439,119.254929 260.220886,119.599136 
	C261.734558,121.731766 263.248230,123.864395 264.758636,125.992439 
	C263.402710,128.274734 262.156799,130.371796 260.910919,132.468857 
	C261.104401,132.817444 261.297913,133.166046 261.491394,133.514648 
	C263.599274,132.680573 265.707184,131.846497 268.253937,130.838776 
	C269.514130,131.673813 270.246613,136.824905 273.471802,133.204971 
	C272.551086,129.910919 271.787872,127.180321 271.412354,123.833664 
z"/>
<path fill="#1F1F1D" opacity="1.000000" stroke="none" 
	d="
M170.533142,0.999998 
	C176.153015,2.091752 181.380875,2.915253 186.444382,4.327853 
	C199.292114,7.912076 209.622467,15.499265 218.887329,24.899879 
	C224.084595,30.173286 229.016510,35.469540 231.729431,43.230209 
	C228.966919,44.644512 226.284607,46.017761 223.917938,47.229416 
	C219.095520,41.186424 215.045532,34.875832 209.816315,29.773869 
	C187.944458,8.434278 155.117920,5.669972 129.673889,21.268280 
	C121.300713,26.401400 114.186829,32.988228 109.333435,41.550079 
	C105.817764,47.752064 104.577873,46.973354 99.343216,44.434486 
	C98.481186,44.016392 97.669418,43.494682 96.524178,42.844807 
	C109.028976,18.974279 128.675980,5.860018 154.849182,1.353977 
	C160.022095,1.000000 165.044189,1.000000 170.533142,0.999998 
z"/>
<path fill="#EFAF23" opacity="1.000000" stroke="none" 
	d="
M1.000000,74.454109 
	C3.849464,67.202408 7.167786,60.678368 14.470579,57.682533 
	C24.639894,53.510765 39.360027,53.548492 46.472992,64.159866 
	C43.882565,66.337868 41.241928,68.558090 39.717342,69.839943 
	C33.928478,68.548500 29.125765,66.724304 24.316130,66.705879 
	C21.717861,66.695908 18.564909,69.301964 16.615799,71.553383 
	C12.533554,76.268791 12.927425,83.856827 17.699078,87.838005 
	C24.418732,93.444496 26.348606,94.924408 38.381767,87.133224 
	C41.050842,89.389252 43.792439,91.706581 46.679913,94.147217 
	C39.629154,102.425461 30.801619,104.625046 21.146070,102.721107 
	C11.089064,100.738007 4.182748,94.650421 1.329955,84.154709 
	C1.000000,80.969406 1.000000,77.938812 1.000000,74.454109 
z"/>
<path fill="#1E1E1C" opacity="1.000000" stroke="none" 
	d="
M368.000000,87.571533 
	C363.939209,88.333069 359.883759,88.798843 355.816132,88.962273 
	C351.662415,89.129158 347.496765,88.999207 343.268951,88.999207 
	C346.080933,95.419609 349.463593,95.052299 358.052704,90.438210 
	C360.258148,92.292168 362.619263,94.276985 364.922607,96.213242 
	C358.176636,103.691147 347.253967,105.351128 338.990692,101.093353 
	C331.912689,97.446312 328.371918,89.357201 330.311096,81.264236 
	C331.813660,74.993416 338.632050,68.706001 343.957001,68.166023 
	C358.781036,66.662773 365.130341,73.168053 367.757263,81.739334 
	C368.000000,83.714355 368.000000,85.428719 368.000000,87.571533 
M342.876740,80.715248 
	C344.139160,81.371063 345.420685,82.606430 346.660126,82.565552 
	C349.492401,82.472137 352.304077,81.754333 355.234161,81.272034 
	C352.332397,76.035599 348.332947,75.698868 342.876740,80.715248 
z"/>
<path fill="#2E2E2D" opacity="1.000000" stroke="none" 
	d="
M228.399994,138.000000 
	C231.304138,130.854492 224.956818,125.801041 223.862747,119.582359 
	C228.198730,119.441025 227.184998,117.556122 231.535248,126.756119 
	C234.880417,125.146873 232.610016,117.360016 239.984314,119.441566 
	C237.264297,125.596169 234.682144,131.438858 232.049988,137.640778 
	C230.933334,138.000000 229.866653,138.000000 228.399994,138.000000 
z"/>
<path fill="#232321" opacity="1.000000" stroke="none" 
	d="
M152.291580,64.081100 
	C152.291595,61.103363 152.291595,58.612896 152.291595,56.032799 
	C161.322281,56.032799 170.394684,54.854118 178.982269,56.388569 
	C186.473419,57.727100 191.085831,69.035324 183.737167,74.806450 
	C181.687592,76.416031 182.665710,77.618690 184.223068,78.964088 
	C191.342606,85.114708 192.137955,87.492798 189.581436,94.243919 
	C187.514359,99.702492 182.574463,102.681290 175.167480,102.753212 
	C167.720749,102.825523 160.272766,102.769112 152.291565,102.769112 
	C152.291565,89.752853 152.291565,77.160614 152.291580,64.081100 
M176.993164,84.502701 
	C173.264374,83.816467 169.535568,83.130241 165.412933,82.371529 
	C165.412933,86.185211 165.412933,88.892059 165.412933,92.026970 
	C167.894974,92.026970 170.166763,92.071671 172.436249,92.017845 
	C177.481247,91.898186 178.548172,90.438515 176.993164,84.502701 
M165.789474,73.917450 
	C167.752762,73.992111 169.926682,74.623329 171.619293,73.982765 
	C173.266876,73.359222 175.478394,71.446739 175.495590,70.075768 
	C175.512802,68.704697 173.350647,66.703552 171.721069,66.075447 
	C169.907379,65.376381 167.616531,65.915306 165.246002,65.915306 
	C165.246002,68.648033 165.246002,70.916473 165.789474,73.917450 
z"/>
<path fill="#1F1F1D" opacity="1.000000" stroke="none" 
	d="
M325.034454,70.006996 
	C325.049622,80.708649 325.064789,91.410309 324.741577,102.795700 
	C324.310425,103.903282 324.217651,104.327118 324.124878,104.750946 
	C323.081635,111.393547 318.235565,115.918953 310.675842,117.170837 
	C303.247498,118.400970 296.203247,117.409508 289.173218,113.171898 
	C291.039398,110.275566 292.777802,107.577560 294.480713,104.934669 
	C306.581329,108.760086 310.820618,107.895729 313.706390,100.778702 
	C311.257874,101.441101 309.088654,102.194031 306.856354,102.600792 
	C300.075287,103.836411 294.340790,101.562691 290.179657,96.311966 
	C285.652344,90.599213 285.459076,83.974739 288.445923,77.502441 
	C291.358948,71.190186 296.791443,68.018639 303.605011,68.121414 
	C306.702972,68.168144 309.777283,69.786606 313.456848,70.346848 
	C317.712433,70.003372 321.373444,70.005180 325.034454,70.006996 
M313.179077,84.704056 
	C312.908325,83.929863 312.856049,82.719231 312.329651,82.455742 
	C309.824432,81.201714 307.105896,79.219002 304.628815,79.430954 
	C302.664856,79.598991 300.090912,82.258865 299.320404,84.371284 
	C298.308258,87.146362 299.578796,89.675560 302.765747,91.467575 
	C307.296143,94.015007 311.731873,91.804848 313.179077,84.704056 
z"/>
<path fill="#232321" opacity="1.000000" stroke="none" 
	d="
M251.409515,70.164032 
	C257.596375,66.460754 263.242737,68.457680 269.244995,70.946442 
	C269.244995,65.657372 269.244995,60.709717 269.244995,55.514702 
	C273.366943,55.514702 277.137756,55.514702 281.285400,55.514702 
	C281.285400,71.037376 281.285400,86.593712 281.285400,102.957886 
	C277.159790,101.222229 272.388916,105.685181 268.783112,100.595459 
	C268.717438,100.502769 267.778839,101.036987 267.242828,101.267700 
	C258.264954,105.132149 249.201294,102.348129 244.903503,94.407585 
	C240.329056,85.955887 242.883224,75.977196 251.409515,70.164032 
M268.035126,89.532829 
	C270.535156,86.041794 269.773102,82.194908 266.157532,80.054741 
	C262.583984,77.939461 257.746094,79.296974 255.844162,82.948677 
	C254.278381,85.954979 255.728867,90.652069 259.276703,91.439247 
	C261.798126,91.998688 264.751923,90.609543 268.035126,89.532829 
z"/>
<path fill="#EFAF21" opacity="1.000000" stroke="none" 
	d="
M83.013741,95.001945 
	C76.935402,103.557770 68.307022,105.805191 57.096619,101.134872 
	C56.379345,100.500992 56.042828,100.385612 55.706314,100.270233 
	C55.706314,100.270233 55.748512,100.354378 55.754051,100.163055 
	C55.505661,99.986618 55.251732,100.001495 54.997807,100.016380 
	C47.014221,94.139915 44.746010,85.589882 49.097462,77.435768 
	C53.773590,68.673241 63.867550,65.752396 72.006950,68.360275 
	C83.531548,72.052757 88.875496,81.898636 84.098480,92.870773 
	C83.490456,93.619736 83.377762,93.955605 83.265060,94.291473 
	C83.265060,94.291473 83.349266,94.241943 83.159042,94.239532 
	C82.846123,94.288597 82.723434,94.340080 82.600746,94.391571 
	C82.738411,94.595032 82.876076,94.798485 83.013741,95.001945 
M71.676247,90.910156 
	C72.106621,90.243195 72.536995,89.576233 73.010925,88.384399 
	C73.279671,87.940834 73.548416,87.497276 74.380226,86.694893 
	C74.175285,85.817238 73.970345,84.939590 73.299606,83.568489 
	C72.978394,83.001190 72.734253,82.369621 72.323471,81.877014 
	C69.616463,78.630836 65.974609,77.578064 62.824936,80.240746 
	C61.018330,81.768013 59.611069,85.392479 60.083836,87.639412 
	C60.960102,91.804100 64.780571,92.673286 68.757339,91.914589 
	C69.543251,91.764664 70.272675,91.318649 71.676247,90.910156 
z"/>
<path fill="#EFB026" opacity="1.000000" stroke="none" 
	d="
M110.956024,68.841072 
	C115.166245,68.615578 119.622307,66.796570 123.556343,70.501663 
	C130.407806,66.243034 142.441666,67.042473 144.505981,77.050232 
	C144.211777,85.973015 144.149048,94.225006 144.086304,102.477005 
	C140.632172,102.477005 137.178040,102.477005 132.943954,102.477005 
	C132.943954,97.493416 132.984497,92.424667 132.930527,87.356926 
	C132.890564,83.606171 133.717590,79.176308 127.970306,78.847061 
	C124.029312,78.621284 122.676704,81.003433 122.669662,87.611092 
	C122.664406,92.538010 122.668625,97.464943 122.668625,102.618111 
	C118.161697,102.618111 114.382034,102.618111 110.666756,101.946236 
	C110.806099,90.463264 110.881065,79.652168 110.956024,68.841072 
z"/>
<path fill="#1E1E1C" opacity="1.000000" stroke="none" 
	d="
M213.025131,68.887619 
	C215.481598,68.887611 217.938080,68.887611 221.012619,68.887611 
	C221.012619,70.952950 220.872726,72.883392 221.043884,74.785843 
	C221.334381,78.014938 220.004272,78.872528 216.810898,79.189964 
	C214.325958,79.436966 212.011154,81.395752 208.983063,82.980774 
	C207.891602,85.520248 207.072708,87.668068 207.045288,89.825935 
	C206.903427,100.989151 206.973999,100.990051 196.034424,101.002487 
	C195.975861,90.975204 195.917297,80.947929 196.401184,70.468834 
	C200.944931,70.358681 205.388275,68.654076 208.623825,72.540298 
	C209.081970,72.024864 209.540115,71.509438 209.998276,70.994011 
	C210.160049,70.692772 210.321823,70.391533 211.053726,70.005844 
	C212.090958,69.576813 212.558044,69.232216 213.025131,68.887619 
z"/>
<path fill="#232321" opacity="1.000000" stroke="none" 
	d="
M229.217758,102.770569 
	C226.507111,102.976738 225.031876,102.663170 225.077576,99.700302 
	C225.233551,89.588852 225.137283,79.473503 225.137283,68.937805 
	C229.345657,68.937805 233.378235,68.937805 237.703735,68.937805 
	C237.703735,80.007408 237.703735,91.164299 237.703735,102.770676 
	C234.906540,102.770676 232.292999,102.770676 229.217758,102.770569 
z"/>
<path fill="#F0B22B" opacity="1.000000" stroke="none" 
	d="
M91.954971,68.828323 
	C95.552917,68.628990 99.150864,68.429665 103.228401,68.203766 
	C103.228401,79.828171 103.228401,90.970085 103.228401,102.624474 
	C99.385612,102.624474 95.488411,102.624474 91.661804,101.951897 
	C91.806595,90.462318 91.880783,79.645325 91.954971,68.828323 
z"/>
<path fill="#2D2D2D" opacity="1.000000" stroke="none" 
	d="
M201.866058,127.951813 
	C200.646545,129.053711 199.427017,130.155609 197.367661,132.016327 
	C194.731415,129.064804 191.667770,125.634750 187.704483,121.197479 
	C187.704483,125.920555 187.704483,129.701645 187.217575,133.505432 
	C186.489136,133.678513 186.247604,133.828903 186.006073,133.979309 
	C185.555710,134.044067 185.105362,134.108841 184.270462,133.846527 
	C183.710602,133.225861 183.452774,133.062454 183.112457,133.029205 
	C183.059067,126.984688 183.005692,120.940178 183.256775,114.366745 
	C183.855408,113.656624 183.997223,113.393356 183.986679,113.048004 
	C184.439972,112.989822 184.893280,112.931648 185.734589,113.143829 
	C186.402084,113.324409 186.681580,113.234619 186.961060,113.144836 
	C190.405106,117.139572 193.849152,121.134300 197.963745,124.793579 
	C198.750717,120.659203 198.867126,116.860298 198.983551,113.061386 
	C199.438095,112.999214 199.892639,112.937042 200.649536,113.428207 
	C201.256622,118.638306 201.561340,123.295067 201.866058,127.951813 
z"/>
<path fill="#2C2C2B" opacity="1.000000" stroke="none" 
	d="
M221.206848,120.251862 
	C221.247269,124.035156 221.255173,127.348846 221.251022,130.662521 
	C221.248123,132.970078 220.941422,134.437790 217.800980,133.595474 
	C215.952118,133.099579 213.733627,134.188965 211.675873,134.222092 
	C207.235809,134.293594 204.110504,130.941605 204.074661,126.325729 
	C204.039917,121.852936 206.481110,119.063576 211.054886,118.994148 
	C214.421570,118.943039 217.797424,119.497597 221.206848,120.251862 
M215.563080,129.834167 
	C215.557953,127.502647 215.552826,125.171135 215.547714,122.839615 
	C213.575531,122.862938 210.677597,122.114586 209.857574,123.098328 
	C208.748413,124.428932 208.480728,127.427811 209.228455,129.092804 
	C210.146561,131.137131 212.461060,132.685333 215.563080,129.834167 
z"/>
<path fill="#2B2B2B" opacity="1.000000" stroke="none" 
	d="
M243.046280,132.797791 
	C239.529007,129.278015 238.984253,125.377510 241.398132,121.668884 
	C245.500107,115.366760 251.563400,119.473190 257.244354,118.892563 
	C257.244354,123.272728 257.353333,127.233986 257.165466,131.181122 
	C257.120178,132.132233 256.077881,133.843018 255.517624,133.833374 
	C251.451538,133.763474 247.391479,133.342270 243.046280,132.797791 
M248.899155,131.364838 
	C249.590912,130.939713 250.717651,130.647827 250.896057,130.065430 
	C251.531555,127.990837 251.844498,125.817444 252.279556,123.681450 
	C250.221436,123.267632 247.574463,121.904305 246.273376,122.711189 
	C245.011475,123.493774 244.601227,126.570953 244.840637,128.514282 
	C244.988937,129.717880 247.046494,130.686264 248.899155,131.364838 
z"/>
<path fill="#EFB026" opacity="1.000000" stroke="none" 
	d="
M227.449524,52.406715 
	C232.973343,50.274288 236.976822,51.774406 238.106018,56.041885 
	C239.124588,59.891254 236.817520,64.350632 232.941513,64.488174 
	C230.553558,64.572914 227.292587,63.284630 225.854126,61.475422 
	C223.673721,58.732998 224.227234,55.243992 227.449524,52.406715 
z"/>
<path fill="#1F1F1D" opacity="1.000000" stroke="none" 
	d="
M100.185013,52.795357 
	C104.197525,55.057697 105.121895,58.111504 103.114372,61.442844 
	C101.337120,64.392075 96.021797,65.400093 92.963425,63.367912 
	C90.288513,61.590527 89.314796,56.583008 91.637619,54.034637 
	C93.778313,51.686085 96.403107,48.914097 100.185013,52.795357 
z"/>
<path fill="#2C2C2B" opacity="1.000000" stroke="none" 
	d="
M271.218506,124.141693 
	C271.787872,127.180321 272.551086,129.910919 273.471802,133.204971 
	C270.246613,136.824905 269.514130,131.673813 268.253937,130.838776 
	C265.707184,131.846497 263.599274,132.680573 261.491394,133.514648 
	C261.297913,133.166046 261.104401,132.817444 260.910919,132.468857 
	C262.156799,130.371796 263.402710,128.274734 264.758636,125.992439 
	C263.248230,123.864395 261.734558,121.731766 260.220886,119.599136 
	C260.381439,119.254929 260.541992,118.910721 260.702545,118.566513 
	C263.017548,119.426018 265.332550,120.285522 267.383179,121.046875 
	C269.167725,120.302063 271.238281,119.437889 273.308838,118.573715 
	C273.538879,118.964691 273.768890,119.355667 273.998932,119.746635 
	C273.136749,121.108978 272.274567,122.471321 271.218506,124.141693 
z"/>
<path fill="#282827" opacity="1.000000" stroke="none" 
	d="
M159.064392,122.027557 
	C159.259354,122.524094 159.454330,123.020638 158.901215,123.840492 
	C156.554855,124.163811 154.956573,124.163811 153.293884,124.163811 
	C153.293884,126.218468 153.293884,127.969040 153.293884,129.705246 
	C159.904724,130.065857 160.753983,129.162735 158.940414,123.948311 
	C159.889511,124.959831 161.745514,126.143066 161.593475,126.946091 
	C161.302933,128.480515 160.149002,130.552505 158.846405,131.036362 
	C156.680832,131.840759 154.115204,131.568115 151.434601,131.770493 
	C151.434601,126.110634 151.434601,121.081688 151.434601,116.084290 
	C159.102097,114.730743 160.930557,116.063721 159.013489,121.762177 
	C159.447311,116.826599 156.508926,117.061295 153.399597,117.184921 
	C153.399597,119.053375 153.399597,120.572327 153.399597,122.027557 
	C155.511307,122.027557 157.287842,122.027557 159.064392,122.027557 
z"/>
<path fill="#111110" opacity="1.000000" stroke="none" 
	d="
M196.014221,101.423912 
	C206.973999,100.990051 206.903427,100.989151 207.045288,89.825935 
	C207.072708,87.668068 207.891602,85.520248 208.704636,83.191917 
	C208.797379,86.306496 208.432388,89.592781 208.292801,92.888618 
	C208.160477,96.013016 208.264359,99.147430 208.264359,103.088234 
	C203.858856,102.641991 199.926437,102.243660 196.014221,101.423912 
z"/>
<path fill="#EEA900" opacity="1.000000" stroke="none" 
	d="
M91.583588,69.068863 
	C91.880783,79.645325 91.806595,90.462318 91.470993,101.590355 
	C91.210449,91.037392 91.211327,80.173401 91.583588,69.068863 
z"/>
<path fill="#EEA900" opacity="1.000000" stroke="none" 
	d="
M110.583344,69.078392 
	C110.881065,79.652168 110.806099,90.463264 110.474564,101.588882 
	C110.215546,91.040840 110.213097,80.178276 110.583344,69.078392 
z"/>
<path fill="#111110" opacity="1.000000" stroke="none" 
	d="
M209.583496,71.090492 
	C209.540115,71.509438 209.081970,72.024864 208.623825,72.540298 
	C205.388275,68.654076 200.944931,70.358681 196.489288,70.007263 
	C199.549698,67.375244 207.069977,68.056313 209.583496,71.090492 
z"/>
<path fill="#EEA900" opacity="1.000000" stroke="none" 
	d="
M144.483856,102.219620 
	C144.149048,94.225006 144.211777,85.973015 144.531799,77.406555 
	C144.819855,85.382141 144.850632,93.672195 144.483856,102.219620 
z"/>
<path fill="#000000" opacity="1.000000" stroke="none" 
	d="
M201.992035,127.504372 
	C201.561340,123.295067 201.256622,118.638306 200.984070,113.521469 
	C201.383499,117.726570 201.750748,122.391747 201.992035,127.504372 
z"/>
<path fill="#000000" opacity="1.000000" stroke="none" 
	d="
M198.557190,113.171021 
	C198.867126,116.860298 198.750717,120.659203 198.320557,124.729492 
	C198.048141,121.094124 198.089478,117.187393 198.557190,113.171021 
z"/>
<path fill="#010100" opacity="1.000000" stroke="none" 
	d="
M324.961365,69.554771 
	C321.373444,70.005180 317.712433,70.003372 313.599854,69.989952 
	C317.061646,69.686409 320.974945,69.394478 324.961365,69.554771 
z"/>
<path fill="#111110" opacity="1.000000" stroke="none" 
	d="
M212.718903,68.902725 
	C212.558044,69.232216 212.090958,69.576813 211.317749,69.962448 
	C211.478653,69.641602 211.945663,69.279716 212.718903,68.902725 
z"/>
<path fill="#0A0A08" opacity="1.000000" stroke="none" 
	d="
M186.732468,113.044067 
	C186.681580,113.234619 186.402084,113.324409 186.068970,113.231087 
	C186.015320,113.047974 186.503876,112.943298 186.732468,113.044067 
z"/>
<path fill="#0A0A08" opacity="1.000000" stroke="none" 
	d="
M183.710800,113.025475 
	C183.997223,113.393356 183.855408,113.656624 183.336792,113.902359 
	C183.219864,113.645584 183.327393,113.324265 183.710800,113.025475 
z"/>
<path fill="#010100" opacity="1.000000" stroke="none" 
	d="
M324.410492,104.558563 
	C324.217651,104.327118 324.310425,103.903282 324.639313,103.257095 
	C324.815643,103.478561 324.755859,103.922363 324.410492,104.558563 
z"/>
<path fill="#EFB024" opacity="1.000000" stroke="none" 
	d="
M55.822517,100.521072 
	C56.042828,100.385612 56.379345,100.500992 56.842377,100.862350 
	C56.625507,100.996193 56.282116,100.884056 55.822517,100.521072 
z"/>
<path fill="#EFB024" opacity="1.000000" stroke="none" 
	d="
M55.136642,100.153557 
	C55.251732,100.001495 55.505661,99.986618 55.708115,100.173309 
	C55.656639,100.374886 55.275478,100.290733 55.136642,100.153557 
z"/>
<path fill="#EFAF23" opacity="1.000000" stroke="none" 
	d="
M83.151489,94.861458 
	C82.876076,94.798485 82.738411,94.595032 82.600746,94.391571 
	C82.723434,94.340080 82.846123,94.288597 83.171173,94.286850 
	C83.373535,94.336578 83.289246,94.720970 83.151489,94.861458 
z"/>
<path fill="#EFAF23" opacity="1.000000" stroke="none" 
	d="
M83.516762,94.175613 
	C83.377762,93.955605 83.490456,93.619736 83.845749,93.154114 
	C83.981720,93.369484 83.875092,93.714615 83.516762,94.175613 
z"/>
<path fill="#0A0A08" opacity="1.000000" stroke="none" 
	d="
M183.089081,133.309296 
	C183.452774,133.062454 183.710602,133.225861 183.939667,133.749359 
	C183.684189,133.849319 183.374954,133.719360 183.089081,133.309296 
z"/>
<path fill="#0A0A08" opacity="1.000000" stroke="none" 
	d="
M186.254272,134.028244 
	C186.247604,133.828903 186.489136,133.678513 186.839478,133.683029 
	C186.799698,133.917694 186.651077,133.997437 186.254272,134.028244 
z"/>
<path fill="#CBCBCB" opacity="1.000000" stroke="none" 
	d="
M342.965576,80.320480 
	C348.332947,75.698868 352.332397,76.035599 355.234161,81.272034 
	C352.304077,81.754333 349.492401,82.472137 346.660126,82.565552 
	C345.420685,82.606430 344.139160,81.371063 342.965576,80.320480 
z"/>
<path fill="#F7F7F7" opacity="1.000000" stroke="none" 
	d="
M177.269699,84.819138 
	C178.548172,90.438515 177.481247,91.898186 172.436249,92.017845 
	C170.166763,92.071671 167.894974,92.026970 165.412933,92.026970 
	C165.412933,88.892059 165.412933,86.185211 165.412933,82.371529 
	C169.535568,83.130241 173.264374,83.816467 177.269699,84.819138 
z"/>
<path fill="#F5F5F5" opacity="1.000000" stroke="none" 
	d="
M165.517731,73.551178 
	C165.246002,70.916473 165.246002,68.648033 165.246002,65.915306 
	C167.616531,65.915306 169.907379,65.376381 171.721069,66.075447 
	C173.350647,66.703552 175.512802,68.704697 175.495590,70.075768 
	C175.478394,71.446739 173.266876,73.359222 171.619293,73.982765 
	C169.926682,74.623329 167.752762,73.992111 165.517731,73.551178 
z"/>
<path fill="#F6F6F6" opacity="1.000000" stroke="none" 
	d="
M313.238037,85.105408 
	C311.731873,91.804848 307.296143,94.015007 302.765747,91.467575 
	C299.578796,89.675560 298.308258,87.146362 299.320404,84.371284 
	C300.090912,82.258865 302.664856,79.598991 304.628815,79.430954 
	C307.105896,79.219002 309.824432,81.201714 312.329651,82.455742 
	C312.856049,82.719231 312.908325,83.929863 313.238037,85.105408 
z"/>
<path fill="#F6F6F6" opacity="1.000000" stroke="none" 
	d="
M267.773926,89.811447 
	C264.751923,90.609543 261.798126,91.998688 259.276703,91.439247 
	C255.728867,90.652069 254.278381,85.954979 255.844162,82.948677 
	C257.746094,79.296974 262.583984,77.939461 266.157532,80.054741 
	C269.773102,82.194908 270.535156,86.041794 267.773926,89.811447 
z"/>
<path fill="#FEFCF8" opacity="1.000000" stroke="none" 
	d="
M73.817154,87.053711 
	C73.548416,87.497276 73.279671,87.940834 72.750107,88.810257 
	C72.002235,89.827133 71.515190,90.418152 71.028152,91.009171 
	C70.272675,91.318649 69.543251,91.764664 68.757339,91.914589 
	C64.780571,92.673286 60.960102,91.804100 60.083836,87.639412 
	C59.611069,85.392479 61.018330,81.768013 62.824936,80.240746 
	C65.974609,77.578064 69.616463,78.630836 72.323471,81.877014 
	C72.734253,82.369621 72.978394,83.001190 73.529358,84.189041 
	C73.778465,85.557632 73.797813,86.305672 73.817154,87.053711 
z"/>
<path fill="#EFAF23" opacity="1.000000" stroke="none" 
	d="
M71.352203,90.959663 
	C71.515190,90.418152 72.002235,89.827133 72.728325,89.072693 
	C72.536995,89.576233 72.106621,90.243195 71.352203,90.959663 
z"/>
<path fill="#EFAF23" opacity="1.000000" stroke="none" 
	d="
M74.098694,86.874298 
	C73.797813,86.305672 73.778465,85.557632 73.762268,84.435760 
	C73.970345,84.939590 74.175285,85.817238 74.098694,86.874298 
z"/>
<path fill="#F2F2F2" opacity="1.000000" stroke="none" 
	d="
M215.225983,129.995621 
	C212.461060,132.685333 210.146561,131.137131 209.228455,129.092804 
	C208.480728,127.427811 208.748413,124.428932 209.857574,123.098328 
	C210.677597,122.114586 213.575531,122.862938 215.547699,122.839615 
	C215.552826,125.171135 215.557953,127.502647 215.225983,129.995621 
z"/>
<path fill="#F2F2F2" opacity="1.000000" stroke="none" 
	d="
M248.573074,131.562531 
	C247.046494,130.686264 244.988937,129.717880 244.840637,128.514282 
	C244.601227,126.570953 245.011475,123.493774 246.273376,122.711189 
	C247.574463,121.904305 250.221436,123.267632 252.279541,123.681450 
	C251.844498,125.817444 251.531555,127.990837 250.896057,130.065430 
	C250.717651,130.647827 249.590912,130.939713 248.573074,131.562531 
z"/>
<path fill="#F5F5F5" opacity="1.000000" stroke="none" 
	d="
M158.949829,123.980331 
	C160.753983,129.162735 159.904724,130.065857 153.293884,129.705246 
	C153.293884,127.969040 153.293884,126.218468 153.293884,124.163811 
	C154.956573,124.163811 156.554855,124.163811 158.588776,124.095291 
	C159.024429,124.026764 158.959244,124.012360 158.949829,123.980331 
z"/>
<path fill="#F0F0F0" opacity="1.000000" stroke="none" 
	d="
M159.036377,122.010628 
	C157.287842,122.027557 155.511307,122.027557 153.399597,122.027557 
	C153.399597,120.572327 153.399597,119.053375 153.399597,117.184921 
	C156.508926,117.061295 159.447311,116.826599 158.678131,121.803909 
	C159.050842,122.040726 159.008347,121.993698 159.036377,122.010628 
z"/>
</svg>